<svg width="17" height="15" viewBox="0 0 17 15" fill="none" xmlns="http://www.w3.org/2000/svg">
<path d="M8.5 11.5491C9.42874 11.5491 10.2136 11.2286 10.8547 10.5876C11.4957 9.94654 11.8162 9.16165 11.8162 8.23291C11.8162 7.30417 11.4957 6.51928 10.8547 5.87824C10.2136 5.23721 9.42874 4.91669 8.5 4.91669C7.57126 4.91669 6.78637 5.23721 6.14533 5.87824C5.5043 6.51928 5.18378 7.30417 5.18378 8.23291C5.18378 9.16165 5.5043 9.94654 6.14533 10.5876C6.78637 11.2286 7.57126 11.5491 8.5 11.5491ZM8.5 10.6602C7.80933 10.6602 7.23215 10.4283 6.76844 9.96447C6.30459 9.50076 6.07267 8.92358 6.07267 8.23291C6.07267 7.54224 6.30459 6.96506 6.76844 6.50136C7.23215 6.0375 7.80933 5.80558 8.5 5.80558C9.19067 5.80558 9.76785 6.0375 10.2316 6.50136C10.6954 6.96506 10.9273 7.54224 10.9273 8.23291C10.9273 8.92358 10.6954 9.50076 10.2316 9.96447C9.76785 10.4283 9.19067 10.6602 8.5 10.6602ZM1.936 14.4551C1.52681 14.4551 1.18519 14.3181 0.911111 14.044C0.637037 13.7699 0.5 13.4283 0.5 13.0191V3.44669C0.5 3.0375 0.637037 2.69587 0.911111 2.4218C1.18519 2.14773 1.52681 2.01069 1.936 2.01069H4.56489L5.77867 0.691132C5.90741 0.547429 6.06378 0.435133 6.24778 0.354244C6.43193 0.273355 6.62711 0.23291 6.83333 0.23291H10.1667C10.3729 0.23291 10.5681 0.273355 10.7522 0.354244C10.9362 0.435133 11.0926 0.547429 11.2213 0.691132L12.4351 2.01069H15.064C15.4732 2.01069 15.8148 2.14773 16.0889 2.4218C16.363 2.69587 16.5 3.0375 16.5 3.44669V13.0191C16.5 13.4283 16.363 13.7699 16.0889 14.044C15.8148 14.3181 15.4732 14.4551 15.064 14.4551H1.936Z" fill="white"/>
</svg>
